<svg
    width="20px"
    height="20px"
    viewBox="0 0 64 64"
    fill="currentColor"
    stroke="currentColor"
    xmlns="http://www.w3.org/2000/svg"
    xmlnsXlink="http://www.w3.org/1999/xlink"
  >
    <path d="M51.063,0.25H12.938c-2.481,0-4.5,2.019-4.5,4.5v54.5c0,2.481,2.019,4.5,4.5,4.5h38.125c2.481,0,4.5-2.019,4.5-4.5V4.75  C55.563,2.269,53.544,0.25,51.063,0.25z M52.563,59.25c0,0.827-0.673,1.5-1.5,1.5H12.938c-0.827,0-1.5-0.673-1.5-1.5V4.75  c0-0.827,0.673-1.5,1.5-1.5h38.125c0.827,0,1.5,0.673,1.5,1.5V59.25z"/>
    <path d="M17.125,10.75H45.75c0.828,0,1.5-0.671,1.5-1.5s-0.672-1.5-1.5-1.5H17.125c-0.829,0-1.5,0.671-1.5,1.5  S16.296,10.75,17.125,10.75z"/>
    <path d="M17.125,19.75H32.75c0.828,0,1.5-0.671,1.5-1.5s-0.672-1.5-1.5-1.5H17.125c-0.829,0-1.5,0.671-1.5,1.5  S16.296,19.75,17.125,19.75z"/>
    <path d="M17.125,28.75H40.25c0.828,0,1.5-0.671,1.5-1.5s-0.672-1.5-1.5-1.5H17.125c-0.829,0-1.5,0.671-1.5,1.5  S16.296,28.75,17.125,28.75z"/>
    <path d="M30.188,36.25c0-0.828-0.671-1.5-1.5-1.5H17.125c-0.829,0-1.5,0.672-1.5,1.5s0.671,1.5,1.5,1.5h11.563  C29.516,37.75,30.188,37.078,30.188,36.25z"/>
  </svg>